# xmcd
#
# Track frame offsets:
#	150
#	17431
#	36421
#	50388
#	66160
#	80684
#	101572
#	118053
#	133827
#	151497
#	168924
#	179933
#	203939
#
# Disc length: 3020 seconds
#
# Revision: 1
# Processed by: cddbd v1.5.2PL0 Copyright (c) Steve Scherf et al.
# Submitted via: audiograbber 1.83.01
#
DISCID=ba0bca0d
DTITLE=Seasick Steve - Man from another time (2009)
DYEAR=2009
DGENRE=
TTITLE0=Diddley Bo
TTITLE1=Big green and yeller
TTITLE2=Happy (to have a job)
TTITLE3=The banjo song
TTITLE4=Man from another time
TTITLE5=That's all
TTITLE6=Just because I can
TTITLE7=Never go west
TTITLE8=Dark
TTITLE9=Wenatchee
TTITLE10=My home
TTITLE11=Seasick boogie
TTITLE12=13
EXTD=
EXTT0=
EXTT1=
EXTT2=
EXTT3=
EXTT4=
EXTT5=
EXTT6=
EXTT7=
EXTT8=
EXTT9=
EXTT10=
EXTT11=
EXTT12=
PLAYORDER=
